<?xml version="1.0" standalone="no"?>
<!DOCTYPE svg PUBLIC "-//W3C//DTD SVG 20010904//EN"
 "http://www.w3.org/TR/2001/REC-SVG-20010904/DTD/svg10.dtd">
<svg version="1.0" xmlns="http://www.w3.org/2000/svg"
 width="960.000000pt" height="960.000000pt" viewBox="0 0 960.000000 960.000000"
 preserveAspectRatio="xMidYMid meet">
<metadata>
Created by potrace 1.11, written by Peter Selinger 2001-2013
</metadata>
<g transform="translate(0.000000,960.000000) scale(0.100000,-0.100000)"
fill="#000000" stroke="none">
<path d="M401 9584 c-180 -48 -339 -208 -386 -389 -13 -53 -15 -534 -15 -4395
0 -3861 2 -4342 15 -4395 48 -183 207 -342 390 -390 53 -13 374 -15 2832 -15
l2772 0 4 1178 c1 647 6 1186 10 1198 l8 20 -103 -18 c-57 -9 -178 -23 -269
-30 -146 -10 -182 -10 -310 6 -1064 130 -1744 687 -1978 1621 -61 242 -93 619
-72 834 90 917 544 1624 1292 2014 205 108 437 191 652 235 l88 18 -186 201
c-102 111 -185 204 -185 207 0 3 1044 6 2320 6 l2320 0 0 45 0 45 -534 0 -533
0 -21 50 -21 50 -2209 0 -2209 0 -73 110 c-40 61 -71 112 -69 113 3 3 3760
-45 4359 -55 l174 -3 10 -32 c7 -27 11 -30 20 -18 14 19 129 67 266 111 213
69 436 107 698 120 l142 7 0 30 0 30 -157 -6 c-176 -7 -316 -26 -473 -63 -124
-29 -300 -86 -388 -126 -35 -15 -68 -25 -73 -22 -5 3 -9 1 -9 -4 0 -6 -8 -8
-17 -6 -35 8 -453 54 -708 79 -1377 132 -2705 130 -3534 -5 -68 -11 -126 -18
-129 -16 -6 7 39 83 100 171 65 93 150 188 210 236 33 26 44 39 32 39 -23 0
46 72 126 133 79 59 79 59 35 52 -22 -4 -48 -9 -59 -12 -44 -12 53 114 154
200 l45 38 -70 -6 c-38 -3 -79 -8 -90 -11 -25 -6 19 34 127 116 150 113 266
170 377 184 29 4 63 13 75 21 42 28 208 64 349 76 115 10 151 17 190 37 61 31
225 59 397 67 96 5 148 12 180 25 95 39 186 45 640 45 446 0 594 -8 900 -46
644 -80 1116 -253 1433 -524 151 -129 273 -316 317 -485 l19 -75 0 465 c1 387
-2 476 -14 525 -48 183 -207 342 -390 390 -53 13 -533 15 -4400 14 -3757 0
-4347 -2 -4394 -15z"/>
<path d="M6983 9283 c15 -2 39 -2 55 0 15 2 2 4 -28 4 -30 0 -43 -2 -27 -4z"/>
<path d="M7190 9269 c748 -52 1311 -210 1721 -481 243 -161 439 -392 504 -595
19 -57 29 -62 103 -47 28 6 31 9 26 38 -46 261 -203 477 -478 659 -359 235
-894 378 -1606 427 -80 5 -199 9 -265 8 l-120 -1 115 -8z"/>
<path d="M6225 9219 c-256 -13 -241 -15 145 -16 386 -1 571 -11 840 -44 794
-98 1391 -341 1762 -716 99 -99 164 -182 207 -264 l30 -55 58 7 c32 4 69 8 82
8 20 1 22 4 16 28 -22 89 -125 252 -229 361 -383 403 -1081 638 -2056 692
-211 11 -619 11 -855 -1z"/>
<path d="M5968 9193 c7 -3 16 -2 19 1 4 3 -2 6 -13 5 -11 0 -14 -3 -6 -6z"/>
<path d="M5945 9139 c-235 -13 -236 -16 -5 -17 1323 -12 2286 -318 2918 -927
l118 -113 59 14 c33 7 72 14 88 14 15 0 27 3 27 6 0 15 -77 131 -123 186 -163
196 -362 344 -652 484 -408 197 -929 315 -1565 354 -189 11 -644 11 -865 -1z"/>
<path d="M5683 9113 c9 -2 23 -2 30 0 6 3 -1 5 -18 5 -16 0 -22 -2 -12 -5z"/>
<path d="M5495 9049 c-210 -15 -420 -41 -474 -60 -61 -21 -183 -89 -227 -125
l-29 -25 30 5 c51 9 432 45 610 58 228 16 867 16 1075 0 813 -64 1449 -246
1915 -550 140 -91 207 -144 301 -238 l81 -81 62 16 c33 8 61 19 61 22 0 4 -42
46 -92 95 -540 513 -1337 809 -2383 884 -160 11 -766 11 -930 -1z"/>
<path d="M5520 8853 c-154 -8 -473 -35 -530 -44 -86 -13 -195 -67 -265 -130
-30 -29 -54 -53 -52 -55 2 -2 64 5 138 16 430 63 742 85 1204 85 396 0 526 -7
825 -46 704 -90 1351 -319 1753 -620 75 -57 100 -68 111 -51 15 25 -167 185
-334 294 -469 306 -1136 494 -1948 548 -137 9 -759 11 -902 3z"/>
<path d="M5698 8670 c-413 -19 -822 -67 -908 -106 -72 -33 -186 -107 -171
-112 6 -2 77 4 158 12 901 97 1729 84 2458 -39 508 -85 1012 -248 1306 -420
136 -79 40 2 -121 103 -392 246 -935 426 -1546 512 -322 45 -817 66 -1176 50z"/>
<path d="M5455 8463 c-440 -26 -759 -57 -830 -79 -107 -33 -238 -146 -353
-303 -34 -47 -61 -85 -59 -86 1 -1 76 8 167 20 645 87 1543 107 2480 54 437
-24 1083 -81 1471 -128 150 -19 199 -19 199 0 0 11 -187 105 -314 158 -124 52
-402 142 -553 180 -371 93 -765 152 -1218 181 -141 9 -858 11 -990 3z"/>
<path d="M9277 7959 c-189 -20 -483 -89 -590 -138 l-42 -19 478 -1 477 -1 0
85 0 85 -122 -1 c-68 -1 -158 -5 -201 -10z"/>
<path d="M4046 7823 c9 -16 27 -43 38 -60 l21 -33 2169 0 2168 0 -7 27 c-4 16
-8 30 -11 32 -3 3 -3943 59 -4308 61 l-88 0 18 -27z"/>
<path d="M8500 7740 c0 -7 190 -10 550 -10 360 0 550 3 550 10 0 7 -190 10
-550 10 -360 0 -550 -3 -550 -10z"/>
<path d="M8562 7663 c3 -17 37 -18 521 -21 512 -2 517 -2 517 18 0 20 -6 20
-521 20 -490 0 -520 -1 -517 -17z"/>
<path d="M5107 7407 c10 -13 81 -91 157 -175 l140 -152 2098 0 2098 0 0 175 0
175 -2256 0 -2255 0 18 -23z"/>
<path d="M5260 7005 c-636 -132 -1206 -520 -1526 -1037 -284 -460 -422 -1035
-375 -1569 100 -1124 776 -1816 1941 -1984 280 -41 646 -1 944 102 618 214
1021 750 1097 1458 24 229 -20 472 -132 727 -78 179 -153 286 -311 445 -117
118 -201 182 -330 251 -404 217 -991 276 -1348 136 -333 -131 -594 -429 -729
-832 -48 -144 -64 -262 -58 -427 18 -464 258 -779 710 -930 339 -113 674 -78
940 98 255 170 437 462 439 702 1 208 -160 525 -340 670 -138 111 -305 166
-502 167 -208 1 -339 -44 -461 -160 -200 -188 -266 -521 -152 -760 53 -109
206 -233 319 -257 16 -4 3 5 -29 19 -149 63 -234 158 -272 302 -16 61 -22 239
-10 311 42 248 214 428 457 477 416 85 767 -154 883 -599 65 -249 6 -499 -157
-671 -84 -88 -169 -146 -310 -214 -187 -88 -312 -120 -479 -120 -554 0 -971
425 -996 1016 -6 144 3 218 43 347 131 419 513 755 961 846 137 28 287 36 418
22 623 -67 1106 -415 1269 -914 49 -151 61 -231 60 -412 -1 -186 -15 -295 -64
-483 -166 -638 -632 -1054 -1323 -1183 -160 -30 -408 -36 -552 -15 -752 113
-1277 476 -1569 1086 -199 417 -265 877 -200 1385 71 545 330 1021 739 1360
322 266 752 469 1175 555 96 20 137 20 2134 20 l2036 0 0 45 0 45 -2112 -1
-2113 0 -115 -24z"/>
<path d="M5352 6845 c-229 -58 -386 -116 -587 -217 -246 -123 -438 -260 -620
-443 -400 -400 -595 -910 -595 -1552 0 -367 72 -692 220 -999 286 -591 813
-947 1555 -1050 227 -31 513 3 785 93 123 41 347 157 445 230 305 229 496 547
579 965 52 257 53 436 6 633 -110 467 -475 806 -1011 939 -145 36 -224 46
-374 46 -339 0 -636 -116 -871 -342 -164 -157 -275 -341 -331 -544 -71 -260
-7 -602 157 -844 184 -272 503 -421 838 -393 l87 8 -135 7 c-154 7 -263 34
-383 94 -238 119 -423 344 -503 611 -32 106 -45 331 -25 436 42 218 169 438
338 584 161 138 307 212 535 269 122 31 376 44 494 25 348 -54 674 -272 885
-590 77 -116 102 -175 132 -311 18 -82 21 -127 21 -335 0 -236 -1 -242 -31
-355 -73 -277 -180 -459 -378 -648 -115 -110 -250 -201 -415 -281 -205 -99
-358 -140 -603 -162 -210 -20 -448 12 -657 86 -110 40 -292 136 -399 213 -117
83 -308 265 -399 380 -161 202 -267 395 -321 583 -113 390 -135 792 -65 1154
50 253 180 535 350 756 293 382 789 680 1434 864 l124 35 1983 0 1983 0 0 45
0 45 -2057 0 -2058 -1 -133 -34z"/>
<path d="M5500 6694 c-536 -157 -931 -374 -1230 -673 -179 -179 -290 -342
-382 -558 -186 -440 -196 -1002 -27 -1517 139 -424 567 -878 998 -1060 195
-82 365 -116 584 -116 572 0 1127 313 1359 766 146 286 186 655 107 993 -35
151 -125 295 -284 456 -352 357 -792 460 -1278 301 -167 -54 -303 -141 -442
-280 -210 -210 -309 -506 -264 -786 15 -100 71 -252 125 -342 94 -157 270
-310 434 -378 211 -87 478 -85 732 6 224 80 375 236 433 444 27 97 26 253 -3
355 -34 120 -111 269 -179 346 -130 149 -295 223 -493 223 -112 0 -178 -14
-278 -60 -194 -89 -304 -296 -289 -548 5 -83 32 -204 43 -193 2 2 -1 17 -7 33
-20 50 -15 219 9 307 49 173 185 305 363 352 71 19 219 19 294 0 270 -68 457
-292 455 -544 -2 -230 -138 -462 -320 -544 -130 -60 -195 -72 -375 -72 -154 0
-163 2 -254 33 -235 81 -407 242 -473 442 -18 55 -21 87 -21 212 1 175 21 266
88 403 126 258 347 424 629 474 89 16 301 13 397 -5 377 -71 643 -323 746
-703 31 -117 43 -350 23 -482 -51 -351 -242 -624 -541 -775 -274 -137 -655
-177 -996 -103 -513 111 -891 496 -978 996 -38 215 -5 551 76 794 77 231 171
380 346 550 234 227 516 373 858 444 183 38 322 48 583 42 368 -7 642 -54
1121 -192 690 -198 1273 -275 2073 -275 l338 0 0 635 0 635 -1992 -1 -1993 -1
-115 -34z"/>
<path d="M5790 5874 c-407 -37 -716 -149 -1000 -361 -83 -62 -241 -227 -296
-309 -139 -209 -220 -461 -246 -771 -24 -287 36 -539 183 -763 220 -335 584
-529 1029 -547 593 -24 1025 231 1164 688 95 311 63 635 -88 894 -51 87 -199
238 -281 286 -164 96 -309 134 -515 133 -173 0 -280 -22 -405 -84 -197 -97
-351 -287 -415 -510 -27 -93 -38 -298 -21 -381 35 -167 166 -325 341 -412 128
-63 206 -81 355 -81 200 0 372 58 461 157 125 139 159 225 159 407 0 124 0
126 -38 204 -68 143 -205 248 -378 290 -166 41 -336 -3 -457 -117 -69 -66 -97
-115 -122 -212 -36 -141 -17 -297 45 -370 l26 -30 -21 42 c-28 59 -50 148 -50
205 0 174 102 337 255 409 232 110 489 20 603 -210 34 -68 37 -83 40 -175 5
-120 -14 -212 -59 -297 -88 -165 -280 -261 -489 -244 -321 26 -536 189 -601
455 -20 81 -15 248 10 344 86 326 311 508 646 523 378 17 669 -156 839 -496
146 -291 150 -478 15 -741 -198 -388 -622 -617 -1056 -571 -358 37 -670 198
-845 434 -152 206 -220 467 -198 766 20 260 135 544 316 777 113 145 300 297
450 365 400 182 1136 136 1979 -122 433 -132 1011 -252 1465 -303 221 -25 438
-36 733 -36 l277 0 0 54 0 53 -372 6 c-675 10 -1137 78 -2013 295 -446 111
-695 160 -1005 199 -207 25 -657 25 -785 0 -180 -36 -309 -86 -377 -146 -31
-27 -40 -30 -58 -21 -28 15 -26 24 19 62 160 136 518 205 943 180 386 -24 741
-84 1253 -214 550 -139 947 -216 1355 -262 248 -29 391 -36 716 -36 l324 0 0
65 0 65 -217 -6 c-232 -7 -612 7 -884 31 -473 43 -859 113 -1266 231 -382 110
-569 151 -853 189 -111 15 -498 27 -590 19z"/>
<path d="M6360 5551 c58 -21 113 -42 122 -45 11 -5 20 -1 28 14 6 12 10 23 8
25 -5 5 -228 45 -247 44 -9 0 31 -17 89 -38z"/>
<path d="M6582 5514 c-33 -23 -27 -48 16 -68 20 -10 72 -40 115 -68 77 -50 78
-51 98 -32 23 21 59 86 59 107 0 8 -40 22 -117 41 -65 15 -125 30 -133 32 -9
2 -26 -3 -38 -12z"/>
<path d="M6939 5397 c-41 -27 -59 -60 -59 -107 0 -30 9 -44 51 -85 28 -28 87
-94 131 -147 64 -78 87 -99 114 -104 42 -8 74 3 74 24 0 9 -46 64 -101 121
-100 104 -100 105 -80 124 20 20 20 20 136 -84 199 -178 191 -172 252 -177 53
-4 55 -4 44 15 -6 11 -73 69 -151 128 -77 60 -140 111 -140 115 0 3 6 15 14
25 12 17 27 9 222 -130 202 -144 211 -149 267 -153 61 -5 65 -1 45 43 -8 19
-49 46 -145 96 -73 39 -135 74 -137 77 -2 4 1 17 7 29 12 22 13 22 147 -38
111 -49 142 -59 180 -57 54 4 61 19 28 68 -23 34 -26 35 -268 92 -134 32 -310
78 -391 103 -81 25 -160 45 -176 45 -17 0 -45 -10 -64 -23z"/>
<path d="M7904 5184 c20 -51 18 -73 -7 -98 -14 -13 -40 -28 -59 -31 l-34 -6
15 -50 16 -49 883 0 882 0 0 54 0 54 -407 5 c-427 5 -547 14 -873 63 -171 26
-371 61 -404 71 -15 4 -18 2 -12 -13z"/>
<path d="M7180 4894 c0 -1 24 -53 54 -115 29 -63 58 -125 63 -139 8 -20 12 4
18 110 4 74 7 137 6 140 -1 4 -141 8 -141 4z"/>
<path d="M7380 4888 c0 -7 -5 -76 -10 -154 -15 -227 9 -459 61 -594 69 -174
207 -250 335 -185 59 31 92 71 116 139 22 63 22 150 3 326 -9 74 -18 212 -21
305 l-5 170 -26 3 -26 4 8 -224 c5 -123 9 -299 9 -393 1 -157 -1 -173 -21
-212 -33 -60 -77 -88 -139 -88 -95 1 -166 73 -210 210 -38 119 -48 223 -47
473 0 190 -2 232 -13 232 -8 0 -14 -6 -14 -12z"/>
<path d="M7466 4854 c-10 -73 -7 -370 4 -464 27 -219 100 -350 196 -350 99 0
130 121 104 405 -5 55 -12 180 -16 278 l-7 177 -137 0 -137 0 -7 -46z"/>
<path d="M7920 4757 c0 -80 7 -209 16 -288 8 -79 15 -202 15 -273 1 -149 8
-176 43 -176 65 0 69 144 11 443 -25 125 -35 281 -25 382 l4 50 -32 3 -32 3 0
-144z"/>
<path d="M8034 4844 c-11 -90 2 -268 31 -408 14 -72 28 -173 32 -225 6 -104
23 -151 52 -151 41 0 44 25 12 97 -66 152 -90 341 -72 570 7 79 15 151 18 159
4 10 -4 14 -30 14 l-36 0 -7 -56z"/>
<path d="M8166 4891 c-15 -24 -28 -220 -23 -355 10 -291 90 -472 244 -553 97
-51 202 -65 298 -39 69 18 104 38 146 83 83 87 90 139 55 397 -18 131 -26 232
-26 332 l0 144 -30 0 -30 0 0 -126 c0 -70 7 -211 16 -314 15 -174 15 -192 0
-238 -54 -161 -221 -231 -379 -159 -174 79 -249 296 -233 674 6 158 6 163 -13
163 -11 0 -22 -4 -25 -9z"/>
<path d="M8270 4893 c0 -5 -5 -62 -10 -128 -25 -292 39 -546 159 -629 113 -78
257 -53 322 58 l30 51 -5 125 c-4 69 -11 172 -16 230 -5 58 -9 149 -10 203 l0
97 -235 0 c-129 0 -235 -3 -235 -7z"/>
<path d="M8913 4885 c-11 -30 6 -326 27 -455 11 -69 20 -157 20 -195 0 -79 23
-181 46 -206 8 -9 24 -15 34 -12 42 11 43 26 6 160 -57 207 -69 287 -73 513
l-3 205 -25 3 c-16 2 -27 -3 -32 -13z"/>
<path d="M9026 4848 c-21 -177 15 -484 80 -678 28 -84 56 -120 91 -120 38 0
37 23 -6 118 -50 111 -68 182 -82 317 -11 100 -4 250 17 378 l7 37 -50 0 -50
0 -7 -52z"/>
<path d="M9186 4873 c-32 -151 -34 -357 -6 -493 40 -196 149 -345 299 -412 36
-16 78 -35 94 -43 27 -14 27 -14 27 20 0 24 -5 35 -15 35 -8 0 -15 4 -15 8 0
4 -23 16 -50 26 -113 40 -212 176 -247 336 -18 84 -24 329 -10 468 l8 82 -40
0 c-35 0 -40 -3 -45 -27z"/>
<path d="M9326 4868 c-29 -162 -26 -401 9 -531 33 -128 115 -238 198 -268 21
-7 37 -17 37 -21 0 -4 7 -8 15 -8 13 0 15 54 15 430 l0 430 -134 0 -134 0 -6
-32z"/>
<path d="M5543 4611 c-335 -124 -359 -581 -38 -733 65 -31 77 -33 170 -33 87
0 107 4 157 27 248 115 314 431 131 628 -81 88 -158 123 -277 127 -71 3 -102
-1 -143 -16z"/>
<path d="M7400 4019 c0 -24 -3 -54 -6 -66 -6 -22 -4 -23 56 -23 l63 0 -26 20
c-14 11 -39 41 -56 67 l-31 46 0 -44z"/>
<path d="M8901 4019 c-13 -19 -39 -46 -59 -61 l-35 -28 309 0 309 0 -35 21
c-19 12 -52 37 -73 57 -34 33 -39 35 -48 20 -13 -24 -72 -39 -110 -28 -24 7
-37 4 -66 -16 -50 -33 -95 -32 -125 5 -12 15 -28 36 -33 46 -10 16 -13 14 -34
-16z"/>
<path d="M8211 4026 c-16 -19 -58 -26 -95 -15 -25 7 -34 5 -46 -10 -38 -47
-114 -51 -145 -8 -16 22 -16 22 -27 2 -6 -10 -22 -30 -34 -42 l-23 -23 257 1
c243 0 256 1 232 17 -14 9 -42 33 -64 54 -21 21 -40 38 -41 38 -1 0 -8 -6 -14
-14z"/>
<path d="M7377 3833 c-2 -21 -2 -41 0 -45 2 -5 503 -8 1114 -8 l1109 0 0 45 0
45 -1109 0 -1109 0 -5 -37z"/>
<path d="M5445 3789 c41 -14 248 -24 268 -13 10 6 -24 9 -91 9 -59 0 -129 3
-157 7 -41 6 -45 5 -20 -3z"/>
<path d="M7356 3718 c-18 -63 -26 -98 -26 -112 0 -15 91 -16 1135 -16 l1135 0
0 70 0 70 -1120 0 c-888 0 -1121 -3 -1124 -12z"/>
<path d="M7300 3518 c-27 -65 -60 -152 -60 -160 0 -4 531 -8 1180 -8 l1180 0
0 95 0 95 -1145 0 -1145 0 -10 -22z"/>
<path d="M7189 3258 c-12 -24 -39 -70 -60 -104 -22 -34 -39 -63 -39 -66 0 -3
24 -8 54 -10 78 -6 130 -44 164 -116 l27 -57 3 -1453 2 -1452 90 0 90 0 2
1457 3 1458 29 59 c34 70 85 122 152 156 38 19 68 26 136 28 77 4 93 1 147
-23 72 -33 132 -94 167 -169 l24 -53 0 -1456 1 -1457 84 0 84 0 1 1448 c0 882
4 1460 10 1481 23 82 88 158 173 203 35 19 58 23 142 23 86 0 107 -3 149 -24
66 -33 122 -91 155 -160 l26 -56 3 -1457 2 -1458 68 1 c37 0 87 6 112 12 l45
12 5 1445 5 1445 27 56 c55 111 153 180 266 187 l62 4 0 69 0 69 -1195 0
-1195 0 -21 -42z"/>
<path d="M7753 3089 c-63 -24 -143 -107 -161 -166 -9 -31 -12 -390 -12 -1482
l0 -1441 275 0 275 0 0 1438 c0 1633 7 1496 -84 1588 -83 82 -185 104 -293 63z"/>
<path d="M8590 3095 c-61 -19 -125 -76 -158 -139 l-27 -51 -3 -1453 -2 -1452
280 0 280 0 -3 1448 c-2 1599 3 1464 -64 1557 -62 84 -197 124 -303 90z"/>
<path d="M9476 3090 c-57 -22 -118 -78 -149 -135 l-22 -40 -3 -1427 c-1 -786
1 -1428 4 -1428 4 0 29 14 56 31 63 41 136 122 175 196 66 123 63 42 63 1500
l0 1323 -37 0 c-21 -1 -60 -10 -87 -20z"/>
<path d="M7051 3014 c-44 -23 -78 -77 -91 -143 -7 -35 -10 -544 -10 -1463 l1
-1408 169 0 170 0 -3 1443 -2 1442 -21 46 c-12 25 -36 56 -54 69 -43 30 -114
36 -159 14z"/>
<path d="M6825 2789 c-38 -34 -98 -81 -133 -106 l-63 -45 26 -24 c15 -13 36
-45 48 -72 l22 -47 3 -1247 2 -1248 85 0 85 0 0 1425 c0 784 -1 1425 -2 1425
-2 -1 -34 -28 -73 -61z"/>
<path d="M6510 2562 c-17 -18 -32 -47 -39 -80 -8 -38 -11 -405 -11 -1267 l0
-1215 105 0 105 0 0 1233 c0 796 -4 1245 -10 1268 -23 84 -97 114 -150 61z"/>
<path d="M6380 2510 c-8 -5 -54 -24 -103 -41 -79 -29 -87 -34 -81 -53 4 -12
11 -37 15 -56 5 -19 9 -558 9 -1197 l0 -1163 95 0 95 0 0 1238 c0 680 3 1247
6 1260 7 24 -9 29 -36 12z"/>
<path d="M6093 2393 c-17 -26 -18 -97 -21 -1210 l-2 -1183 50 0 50 0 -2 1172
c-3 1079 -4 1176 -20 1211 -20 44 -32 46 -55 10z"/>
</g>
</svg>
